<svg xmlns="http://www.w3.org/2000/svg" viewBox="0 0 1782 289">
  <defs/>
  <path fill="#e91e63" d="M57.94 0L0 289h1724.06L1782 0H57.94z"/>
  <path fill="#fff" fill-opacity=".2" d="M67.94 10h1712.05L1782 0H57.94L0 289h12.01L67.94 10z"/>
  <path fill="#fff" fill-opacity=".2" d="M128.32 62.64h35.26l-9.76 47-5.65 20.79h1c11.4-10.1 24.9-18.2 40.27-18.2 21.15 0 30.25 11.52 30.25 32.88a76.22 76.22 0 01-2.07 18.2l-16 79.93h-35.2l15.13-75.5c1.13-5.18 2.07-8.79 2.07-12.25 0-8.76-4.58-13.19-13-13.19-8 0-15.77 5.28-26.87 16.71l-16.43 84.23H92zm108.83 136.83c0-48.72 33-87.21 68.31-87.21 11.56 0 22.81 6.55 27.81 16.8h.61l5.49-13.71h28.28l-25.6 127.92h-28.7l.54-16.72h-.61c-11.61 12.14-26.75 19.81-40 19.81-22.54 0-36.13-16.74-36.13-46.89zm78.8-.83l9.16-45.34c-4.27-8.52-11.19-12.25-17.19-12.25-17.77 0-34.23 23.38-34.23 53.89 0 15.68 5.82 22.62 14.94 22.62 8.52 0 19.08-4.36 27.37-18.92zm63.05-5c0-44.22 33.09-81.38 75.26-81.38a44 44 0 0134.34 15.8L469 148.94c-5.19-5.46-9.77-8.31-17-8.31-20.37 0-36.93 23.75-36.93 52.31 0 15.62 7.19 25.05 21.65 25.05 8.64 0 14.89-4.07 20.35-8.31l14.73 21.82c-9.61 7.12-22.84 14.86-42.83 14.86-28.42 0-49.97-19.23-49.97-52.72zm146.62-131h35.26l-21 104.66h.94l48.37-52h39L576 171.23l30.34 72h-35.4l-19.35-51.59-20.71 20.8-6.28 30.79h-35.26zm102.51 164.51c0-12.47 10.25-25.88 25.27-25.88 11 0 18.18 8.29 18.18 19.3 0 12.9-10.17 25.79-25.19 25.79-11.01 0-18.26-7.86-18.26-19.21zm74.38-27.68c0-48.72 33-87.21 68.31-87.21 11.55 0 22.81 6.55 27.81 16.8h.61l5.49-13.71H833l-25.6 127.92h-28.7l.55-16.72h-.61c-11.61 12.14-26.75 19.81-40 19.81-22.54 0-36.13-16.74-36.13-46.89zm78.8-.83l9.16-45.34c-4.27-8.52-11.19-12.25-17.19-12.25-17.77 0-34.23 23.38-34.23 53.89 0 15.68 5.82 22.62 14.94 22.62 8.52 0 19.07-4.36 27.32-18.92zm71.58 13.89a92 92 0 011.89-16.1l11.15-53.56h-17l5.28-26.06 18.79-1.46 10.8-33.45h29.56L907 115.35h28.93l-5.37 27.52h-29.79l-11.16 54.92a49.16 49.16 0 00-.61 8.52c0 8.46 4.13 12.53 13.38 12.53a23.55 23.55 0 0010.37-2.94l6.4 24.79a82.65 82.65 0 01-30 5.67c-25.82 0-36.26-14.23-36.26-33.83zM971.38 62.64h35.26l-9.76 47-5.65 20.79h1c11.41-10.1 24.9-18.2 40.28-18.2 21.14 0 30.25 11.52 30.25 32.88a76.22 76.22 0 01-2.07 18.2l-16 79.93h-35.26l15.13-75.5c1.12-5.18 2.07-8.79 2.07-12.25 0-8.76-4.58-13.19-13-13.19-7.95 0-15.77 5.28-26.87 16.71l-16.44 84.23H935.1zm108.41 131c0-49.29 36.46-81.38 71.68-81.38 29.85 0 49.65 20.93 49.65 52.72 0 49.29-36.46 81.38-71.67 81.38-29.85 0-49.66-20.93-49.66-52.72zm85.65-28c0-15.62-6-25.05-17.89-25.05-17.22 0-32.08 22.47-32.08 52.31 0 15.62 6 25.05 17.89 25.05 17.22.05 32.08-22.43 32.08-52.27zm73.02-50.29h28.71l-.54 17.14h1c12.49-10.86 26.84-20.23 43.07-20.23 21.14 0 30.24 11.52 30.24 32.88a89.4 89.4 0 01-2.06 18.2l-16 79.93h-35.26l15.14-75.5c1.12-5.18 2.06-8.79 2.06-12.25 0-8.76-4.58-13.19-13-13.19-7.94 0-15.77 5.28-26.86 16.71l-16.44 84.23h-35.26zM1358 227.15c0-12.47 10.26-25.88 25.28-25.88 11 0 18.17 8.29 18.17 19.3 0 12.9-10.16 25.79-25.18 25.79-11.02 0-18.27-7.86-18.27-19.21zm180.13 16.12h-28.7L1510 226h-1c-11.64 10.86-26.42 20.32-41.8 20.32-21.14 0-30.24-11.53-30.24-32.88a88.74 88.74 0 012.07-18.2l16-79.93h35.26l-15.13 75.5c-1.16 5.19-2.16 8.83-2.16 12.29 0 8.76 4.58 13.19 13 13.19 7.52 0 15.34-5.28 25.59-16.71l16.44-84.23h35.26zm69.28-180.63h35.26l-21 104.66h.94l48.36-52h39l-52.21 55.88 30.33 72h-35.35l-19.34-51.59-20.71 20.8-6.28 30.79h-35.26z"/>
  <path fill="#fff" d="M118.32 52.64h35.26l-9.76 47-5.65 20.79h1c11.4-10.1 24.9-18.2 40.27-18.2 21.15 0 30.25 11.52 30.25 32.88a76.22 76.22 0 01-2.07 18.2l-16 79.93h-35.2l15.13-75.5c1.13-5.18 2.07-8.79 2.07-12.25 0-8.76-4.58-13.19-13-13.19-8 0-15.77 5.28-26.87 16.71l-16.43 84.23H82zm108.83 136.83c0-48.72 33-87.21 68.31-87.21 11.56 0 22.81 6.55 27.81 16.8h.61l5.49-13.71h28.28l-25.6 127.92h-28.7l.54-16.72h-.61c-11.61 12.14-26.75 19.81-40 19.81-22.54 0-36.13-16.74-36.13-46.89zm78.8-.83l9.16-45.34c-4.27-8.52-11.19-12.25-17.19-12.25-17.77 0-34.23 23.38-34.23 53.89 0 15.68 5.82 22.62 14.94 22.62 8.52 0 19.08-4.36 27.37-18.92zm63.05-5c0-44.22 33.09-81.38 75.26-81.38a44 44 0 0134.34 15.8L459 138.94c-5.19-5.46-9.77-8.31-17-8.31-20.37 0-36.93 23.75-36.93 52.31 0 15.62 7.19 25.05 21.65 25.05 8.64 0 14.89-4.07 20.35-8.31l14.73 21.82c-9.61 7.12-22.84 14.86-42.83 14.86-28.42 0-49.97-19.23-49.97-52.72zm146.62-131h35.26l-21 104.66h.94l48.37-52h39L566 161.23l30.34 72h-35.4l-19.35-51.59-20.71 20.8-6.28 30.79h-35.26zm102.51 164.51c0-12.47 10.25-25.88 25.27-25.88 11 0 18.18 8.29 18.18 19.3 0 12.9-10.17 25.79-25.19 25.79-11.01 0-18.26-7.86-18.26-19.21zm74.38-27.68c0-48.72 33-87.21 68.31-87.21 11.55 0 22.81 6.55 27.81 16.8h.61l5.49-13.71H823l-25.6 127.92h-28.7l.55-16.72h-.61c-11.61 12.14-26.75 19.81-40 19.81-22.54 0-36.13-16.74-36.13-46.89zm78.8-.83l9.16-45.34c-4.27-8.52-11.19-12.25-17.19-12.25-17.77 0-34.23 23.38-34.23 53.89 0 15.68 5.82 22.62 14.94 22.62 8.52 0 19.07-4.36 27.32-18.92zm71.58 13.89a92 92 0 011.89-16.1l11.15-53.56h-17l5.28-26.06 18.79-1.46 10.8-33.45h29.56L897 105.35h28.93l-5.37 27.52h-29.79l-11.16 54.92a49.16 49.16 0 00-.61 8.52c0 8.46 4.13 12.53 13.38 12.53a23.55 23.55 0 0010.37-2.94l6.4 24.79a82.65 82.65 0 01-30 5.67c-25.82 0-36.26-14.23-36.26-33.83zM961.38 52.64h35.26l-9.76 47-5.65 20.79h1c11.41-10.1 24.9-18.2 40.28-18.2 21.14 0 30.25 11.52 30.25 32.88a76.22 76.22 0 01-2.07 18.2l-16 79.93h-35.21l15.13-75.5c1.12-5.18 2.07-8.79 2.07-12.25 0-8.76-4.58-13.19-13-13.19-7.95 0-15.77 5.28-26.87 16.71l-16.44 84.23H925.1zm108.41 131c0-49.29 36.46-81.38 71.68-81.38 29.85 0 49.65 20.93 49.65 52.72 0 49.29-36.46 81.38-71.67 81.38-29.85 0-49.66-20.93-49.66-52.72zm85.65-28c0-15.62-6-25.05-17.89-25.05-17.22 0-32.08 22.47-32.08 52.31 0 15.62 6 25.05 17.89 25.05 17.22.05 32.08-22.43 32.08-52.27zm73.02-50.29h28.71l-.54 17.14h1c12.49-10.86 26.84-20.23 43.07-20.23 21.14 0 30.24 11.52 30.24 32.88a89.4 89.4 0 01-2.06 18.2l-16 79.93h-35.26l15.14-75.5c1.12-5.18 2.06-8.79 2.06-12.25 0-8.76-4.58-13.19-13-13.19-7.94 0-15.77 5.28-26.86 16.71l-16.44 84.23h-35.26zM1348 217.15c0-12.47 10.26-25.88 25.28-25.88 11 0 18.17 8.29 18.17 19.3 0 12.9-10.16 25.79-25.18 25.79-11.02 0-18.27-7.86-18.27-19.21zm180.13 16.12h-28.7L1500 216h-1c-11.64 10.86-26.42 20.32-41.8 20.32-21.14 0-30.24-11.53-30.24-32.88a88.74 88.74 0 012.07-18.2l16-79.93h35.26l-15.13 75.5c-1.16 5.19-2.16 8.83-2.16 12.29 0 8.76 4.58 13.19 13 13.19 7.52 0 15.34-5.28 25.59-16.71l16.44-84.23h35.26zm69.28-180.63h35.26l-21 104.66h.94l48.36-52h39l-52.21 55.88 30.33 72h-35.35l-19.34-51.59-20.71 20.8-6.28 30.79h-35.26z"/>
</svg>